<svg width="1500" height="1500" viewBox="0 0 1500 1500" fill="none" xmlns="http://www.w3.org/2000/svg">
<rect width="1500" height="1500" fill="black"/>
<path d="M645.5 264L453 369L572 665L847 468L645.5 264Z" fill="white" stroke="white"/>
<path d="M1048 658L659.5 264.5L1041.5 484.5L1048 658Z" fill="white" stroke="white"/>
<path d="M855.5 478.5L729 661.5L928 703L1046 669L855.5 478.5Z" fill="white" stroke="white"/>
<path d="M675 855L725.5 670.5L917 715L815.5 821L675 855Z" fill="white" stroke="white"/>
<path d="M808.5 834.5L674.5 867L692.5 1032L794 964.5L808.5 834.5Z" fill="white" stroke="white"/>
<path d="M793 977.5L693.5 1041L772.5 1189L813.5 1115.5L793 977.5Z" fill="white" stroke="white"/>
<path d="M821.5 1123L780 1192.5L921.5 1236L902 1172L821.5 1123Z" fill="white" stroke="white"/>
<path d="M909.5 1172.5L928.5 1234.5L989 1133L941.5 1149L909.5 1172.5Z" fill="white" stroke="white"/>
<path d="M948.5 1139.5L988 1126.5L944.5 1067.5L948.5 1139.5Z" fill="white" stroke="white"/>
</svg>
